<svg xmlns="http://www.w3.org/2000/svg" xmlns:xlink="http://www.w3.org/1999/xlink" viewBox="0 0 280.09 280.09"><defs><style>.a{fill:url(#a);}.b{fill:none;stroke:#20558d;stroke-width:14px;}.b,.g{stroke-miterlimit:10;}.c{opacity:0.4;}.d{fill:#215e95;}.e{opacity:0.88;}.f{fill:#f4f4f4;opacity:0.17;}.g{fill:#fff;stroke:#fff;}</style><radialGradient id="a" cx="140.05" cy="140.05" r="238.38" gradientUnits="userSpaceOnUse"><stop offset="0" stop-color="#0796de"/><stop offset="1" stop-color="#2b578b"/></radialGradient></defs><rect class="a" x="7" y="7" width="266.09" height="266.09" rx="8.03"/><rect class="b" x="7" y="7" width="266.09" height="266.09" rx="12.11"/><g class="c"><rect class="d" x="26.75" y="24.63" width="19.95" height="230.83" rx="1.56"/><rect class="d" x="60.92" y="24.63" width="19.95" height="230.83" rx="1.56"/><rect class="d" x="94.95" y="24.63" width="19.95" height="230.83" rx="1.56"/><rect class="d" x="130.14" y="24.63" width="19.95" height="230.83" rx="1.56"/><rect class="d" x="164.17" y="24.63" width="19.95" height="230.83" rx="1.56"/><rect class="d" x="199.37" y="24.63" width="19.95" height="230.83" rx="1.56"/><rect class="d" x="233.39" y="24.63" width="19.95" height="230.83" rx="1.56"/></g><g class="e"><path class="f" d="M124.18,225a149.16,149.16,0,0,1-25.46-5.77c-19.5-6.72-39.34-22.06-48.21-37.27-3.17-5.44-4.23-12.48-3.28-21.83a44.61,44.61,0,0,1,4.69-16.74c8.94-18.7,23.88-36.51,43.21-51.51C109.69,80.63,125,71.36,138.77,65.53c11.83-5,26.59-9.25,36.1-10.36,11.74-1.37,24.08.5,32,4.86s13.14,10.9,18.86,24c5.36,12.32,7.43,23.74,7.42,41,0,14.63-1.79,25.14-6.14,36.14A107.06,107.06,0,0,1,211.37,188a149.1,149.1,0,0,1-15.22,15c-8.51,6.78-19.6,13-28.44,16.08a140.51,140.51,0,0,1-25.39,5.84,108,108,0,0,1-18.14.13Z"/></g><path class="g" d="M214.81,58.44C146.6,11.87-15.74,155.11,60.64,205.71c45.56,30.19,92.48,38,143.71-3.89C240.54,172.21,256.12,86.65,214.81,58.44Zm-6.28,35.15a25.84,25.84,0,0,1-2.71,11,57.71,57.71,0,0,1-10.25,14.91c-4,4.26-9.11,5.26-15.46,5.34-9.88-.81-20.58-1.81-31.09-4.27-1.36-.33-3.33-.35-3.64-2-.36-2,1.42-3,2.89-3.83a239.6,239.6,0,0,1,23.07-11.52c9.16-4.15,18.21-8.62,27.73-11.94a34.31,34.31,0,0,1,5.15-1.37,5.73,5.73,0,0,1,1.12-.11C207.42,89.79,208.53,91.07,208.53,93.59ZM183.85,69.2a15.11,15.11,0,0,1,9-2.89c5.1,0,10.08,2.4,12.54,6.76a9.29,9.29,0,0,1,1.35,4.21,6.1,6.1,0,0,1-2,4.51c-3.28,3.19-7.29,5.3-11.26,7.35-13.84,7.15-27.74,14.2-42.1,20.27a34.53,34.53,0,0,1-3.26,1.22c-.82.25-1.76.39-2.35-.44s0-1.64.5-2.32A116.89,116.89,0,0,1,155.72,97c8-8.36,15.7-17,24.38-24.66C181.32,71.25,182.56,70.16,183.85,69.2ZM135.55,101a89,89,0,0,1,1.75-17.6,14.41,14.41,0,0,1,8.57-10.87c7.76-3.67,15.77-6.45,24.35-7.34A23.76,23.76,0,0,1,172.6,65a9.81,9.81,0,0,1,2,.19c2.24.43,2.71,1.37,1.75,3.44-1.6,3.44-4.19,6.17-6.64,8.95-8,9-16,18-24.49,26.5a49.9,49.9,0,0,1-4.91,4.27c-1,.79-2.32,1.51-3.66.84s-1.07-2.12-1.11-3.33C135.51,104.21,135.55,102.58,135.55,101Zm-1,29.88c.76-3.84,3.29-6,7.2-6h.14c7.87.11,15.51,1.88,23.15,3.53a74.48,74.48,0,0,1,9.64,2.59,14.46,14.46,0,0,1,2.73,1.27c2.65,1.66,3,3.16,1.38,5.82-1.76,2.9-4.3,5.11-6.72,7.41a101.38,101.38,0,0,1-29,19.52c-6.35,2.79-8.7,1.18-9.46-5.76-.38-3.42-.31-6.83-.37-9.75A93.88,93.88,0,0,1,134.52,130.83ZM94.71,104.45A103.2,103.2,0,0,1,118.81,86a33.75,33.75,0,0,1,6.67-3.25,6.38,6.38,0,0,1,1.92-.34c1.58,0,2.55.94,3.12,3,.89,3.27.28,6.64.41,8.51a75.48,75.48,0,0,1-.89,15.38c-.84,4.52-3.16,6.68-7.8,6.56-8.79-.21-17.34-2.07-25.75-4.47C92,110.16,91.44,107.9,94.71,104.45Zm33.86,34.48a167.56,167.56,0,0,1-2.8,25.67c-1.34,6.46-5.15,10.79-11.23,13.23a71.09,71.09,0,0,1-20.39,5.26,25.07,25.07,0,0,1-8.75-.82c-2.78-.74-3.38-2.06-2.21-4.65C84.84,174,87.5,171,90.08,168c9.49-11,19.2-21.75,29.49-32a20.14,20.14,0,0,1,5.06-4,4.33,4.33,0,0,1,1.88-.58c1,0,1.55.78,1.88,2.43a5.71,5.71,0,0,1,.17,1.15C128.57,136.28,128.57,137.61,128.57,138.93Zm-65,5.9a31.92,31.92,0,0,1,3.86-9.47A84.44,84.44,0,0,1,77,122.54a17.24,17.24,0,0,1,13.57-6.23c.8,0,1.61,0,2.46.12a175,175,0,0,1,21.58,3.22A6.75,6.75,0,0,1,116,120c1.16.51,3,.34,3.19,1.92.27,1.76-1.21,2.75-2.54,3.58a131,131,0,0,1-13.8,7.22c-11,5.13-22,10.52-33.42,14.64a11.24,11.24,0,0,1-3.62.79C63.78,148.14,63,147.18,63.52,144.83Zm1.3,10.56a65.34,65.34,0,0,1,9.5-5.85c13.12-6.7,26.23-13.42,39.9-19a4,4,0,0,1,.65-.26,9.39,9.39,0,0,1,2.31-.7,1.44,1.44,0,0,1,1.27.74c.87,1.31-.45,2.35-1.22,3.21C105.08,147.38,92.7,161,78.87,173.17c-.7.62-1.47,1.15-2.22,1.7-3,2.24-6.22,3.55-9.91,1.53-4-2.17-6.32-5.41-6.55-10,0-.47,0-.93,0-1.48C59.78,160.83,61.62,157.8,64.82,155.39ZM227.6,128.2c-.09,1.42-.22,2.83-.38,4.25s-.38,2.8-.62,4.21-.55,2.81-.87,4.21a128.43,128.43,0,0,1-4.23,14.19,107.92,107.92,0,0,1-5.63,12.88,95.36,95.36,0,0,1-7.05,11.49,85,85,0,0,1-18.33,18.77,90.06,90.06,0,0,1-11.3,7.21,100.61,100.61,0,0,1-12.72,5.7,117.39,117.39,0,0,1-14.16,4.17,106.36,106.36,0,0,1-13.67,2.21,91.9,91.9,0,0,1-13.12.32A86.24,86.24,0,0,1,113,216.3,84.87,84.87,0,0,1,101,213a90.93,90.93,0,0,1-11.45-5,100.55,100.55,0,0,1-10.9-6.65,113.6,113.6,0,0,1-10.33-8.21,135.41,135.41,0,0,1-9.69-9.64l.49.4c.43.36.88.71,1.32,1.05.66.48,1.34.93,2,1.34.31.19.63.37.94.54s.89.49,1.35.71c.71.34,1.44.66,2.18.95s1.49.54,2.25.77,1.53.43,2.32.61,1.57.33,2.36.46,1.6.24,2.41.32c1,.1,2,.19,3,.25s2,.1,3,.11,2,0,3,0,2-.08,3-.15,2-.16,3-.27,2-.24,3-.39,2-.31,3-.49,2-.39,3-.61c2.34-.52,4.67-1.11,7-1.74s4.58-1.33,6.83-2.07c1.11-.37,2.21-.74,3.32-1.14s2.24-.82,3.37-1.25c2.2-.85,4.38-1.74,6.54-2.69s4.31-1.95,6.44-3,4.22-2.13,6.3-3.25,4.16-2.32,6.2-3.53,4.08-2.47,6.09-3.76c1.63-1,3.23-2.11,4.83-3.19s3.16-2.17,4.73-3.28,3.11-2.25,4.64-3.39,3-2.33,4.55-3.53,3-2.4,4.44-3.64,2.91-2.49,4.33-3.78,2.84-2.59,4.22-3.92,2.76-2.69,4.09-4.06,2.6-2.7,3.86-4.08,2.51-2.76,3.72-4.17,2.39-2.84,3.54-4.29,2.27-2.94,3.34-4.44,2.13-3,3.14-4.58,2-3.15,2.88-4.77,1.78-3.26,2.6-5,1.59-3.4,2.31-5.15c.36-.89.71-1.79,1-2.69s.61-1.8.88-2.72.5-1.82.71-2.73.39-1.84.54-2.76.25-1.86.32-2.8.1-1.87.09-2.82-.06-1.89-.15-2.85a21.57,21.57,0,0,0-.24-2.24c0-.17-.16-.81-.2-1s-.09-.37-.14-.53a4.75,4.75,0,0,0-.14-.57c-.05-.17-.11-.35-.15-.52s0-.06-.07-.24-.12-.35-.22-.66a4.86,4.86,0,0,0-.23-.65c-.11-.31-.25-.62-.37-.9.41.58.89,1.25,1.17,1.69a27,27,0,0,1,1.5,2.63c.54,1,1.1,2.25,1.68,3.58s1.17,2.77,1.75,4.3,1.16,3.14,1.7,4.79,1.08,3.36,1.56,5.07.92,3.42,1.3,5.1.69,3.34.93,4.92c.21,1.43.4,2.85.56,4.28s.3,2.84.4,4.27.18,2.83.23,4.26.06,2.84,0,4.25S227.69,126.8,227.6,128.2Z"/></svg>